<?xml version="1.0" encoding="UTF-8" standalone="no"?><svg xmlns="http://www.w3.org/2000/svg" xmlns:xlink="http://www.w3.org/1999/xlink" contentScriptType="application/ecmascript" contentStyleType="text/css" height="970px" preserveAspectRatio="none" style="width:2039px;height:970px;background:#FFFFFF;" version="1.1" viewBox="0 0 2039 970" width="2039px" zoomAndPan="magnify"><defs><filter height="300%" id="f1vcp43rgcyadv" width="300%" x="-1" y="-1"><feGaussianBlur result="blurOut" stdDeviation="2.0"/><feColorMatrix in="blurOut" result="blurOut2" type="matrix" values="0 0 0 0 0 0 0 0 0 0 0 0 0 0 0 0 0 0 .4 0"/><feOffset dx="4.0" dy="4.0" in="blurOut2" result="blurOut3"/><feBlend in="SourceGraphic" in2="blurOut3" mode="normal"/></filter></defs><g><text fill="#000000" font-family="sans-serif" font-size="18" lengthAdjust="spacing" textLength="240" x="893.425" y="18.6855">1.0.0 Listore usecase diagram</text><!--MD5=[d64883541e3d62e3241c4d12decf100d]
cluster Application--><polygon fill="#FFFFFF" filter="url(#f1vcp43rgcyadv)" points="16,126.1406,100,126.1406,107,149.75,2004,149.75,2004,862.1406,16,862.1406,16,126.1406" style="stroke:#000000;stroke-width:1.5;"/><line style="stroke:#000000;stroke-width:1.5;" x1="16" x2="107" y1="149.75" y2="149.75"/><text fill="#000000" font-family="sans-serif" font-size="14" font-weight="bold" lengthAdjust="spacing" textLength="78" x="20" y="142.6738">Application</text><!--MD5=[ad0784461099aa706aba15b281d32e34]
cluster everyday--><rect fill="#FFFFFF" filter="url(#f1vcp43rgcyadv)" height="438.5" style="stroke:#000000;stroke-width:1.5;" width="995" x="40" y="269.1406"/><text fill="#000000" font-family="sans-serif" font-size="14" font-weight="bold" lengthAdjust="spacing" textLength="98" x="488.5" y="285.6738">Every day use</text><!--MD5=[dd1dba2181b62d7a6b9501e057c2fe75]
cluster admin--><rect fill="#FFFFFF" filter="url(#f1vcp43rgcyadv)" height="540" style="stroke:#000000;stroke-width:1.5;" width="908" x="1072" y="170.1406"/><text fill="#000000" font-family="sans-serif" font-size="14" font-weight="bold" lengthAdjust="spacing" textLength="131" x="1460.5" y="186.6738">Administration use</text><!--MD5=[01092a67510564d5c3bfa7475ff2570e]
cluster requests--><rect fill="#FFFFFF" filter="url(#f1vcp43rgcyadv)" height="104" style="stroke:#000000;stroke-width:1.5;" width="1329" x="373" y="734.1406"/><text fill="#000000" font-family="sans-serif" font-size="14" font-weight="bold" lengthAdjust="spacing" textLength="67" x="1004" y="750.6738">Requests</text><ellipse cx="588.8525" cy="339.5111" fill="#FEFECE" filter="url(#f1vcp43rgcyadv)" rx="74.8525" ry="17.3705" style="stroke:#A80036;stroke-width:1.5;"/><text fill="#000000" font-family="sans-serif" font-size="14" lengthAdjust="spacing" textLength="101" x="535.3525" y="344.0277">Boot up the app</text><ellipse cx="376.8449" cy="339.4096" fill="#FEFECE" filter="url(#f1vcp43rgcyadv)" rx="101.8449" ry="22.769" style="stroke:#A80036;stroke-width:1.5;"/><text fill="#000000" font-family="sans-serif" font-size="14" lengthAdjust="spacing" textLength="165" x="294.3449" y="343.1381">Add new units to the stock</text><ellipse cx="148.1965" cy="339.8799" fill="#FEFECE" filter="url(#f1vcp43rgcyadv)" rx="91.6965" ry="20.7393" style="stroke:#A80036;stroke-width:1.5;"/><text fill="#000000" font-family="sans-serif" font-size="14" lengthAdjust="spacing" textLength="142" x="77.1965" y="343.6084">Create a new unit type</text><ellipse cx="665.8974" cy="459.1201" fill="#FEFECE" filter="url(#f1vcp43rgcyadv)" rx="90.3974" ry="20.4795" style="stroke:#A80036;stroke-width:1.5;"/><text fill="#000000" font-family="sans-serif" font-size="14" lengthAdjust="spacing" textLength="139" x="596.3974" y="462.8486">Get user_id from User</text><ellipse cx="854.1119" cy="568.363" fill="#FEFECE" filter="url(#f1vcp43rgcyadv)" rx="69.1119" ry="16.2224" style="stroke:#A80036;stroke-width:1.5;"/><text fill="#000000" font-family="sans-serif" font-size="14" lengthAdjust="spacing" textLength="85" x="808.6119" y="572.8796">Store user_id</text><ellipse cx="427.1359" cy="459.2678" fill="#FEFECE" filter="url(#f1vcp43rgcyadv)" rx="113.6359" ry="25.1272" style="stroke:#A80036;stroke-width:1.5;"/><text fill="#000000" font-family="sans-serif" font-size="14" lengthAdjust="spacing" textLength="191" x="331.6359" y="462.9963">Get amount to store from User</text><ellipse cx="655.9382" cy="568.2283" fill="#FEFECE" filter="url(#f1vcp43rgcyadv)" rx="93.4382" ry="21.0876" style="stroke:#A80036;stroke-width:1.5;"/><text fill="#000000" font-family="sans-serif" font-size="14" lengthAdjust="spacing" textLength="146" x="582.9382" y="571.9568">Get utype_id from User</text><ellipse cx="761.0075" cy="673.3421" fill="#FEFECE" filter="url(#f1vcp43rgcyadv)" rx="81.5075" ry="18.7015" style="stroke:#A80036;stroke-width:1.5;"/><text fill="#000000" font-family="sans-serif" font-size="14" lengthAdjust="spacing" textLength="118" x="701.6675" y="677.1711">Get stored user_id</text><ellipse cx="901.934" cy="459.1274" fill="#FEFECE" filter="url(#f1vcp43rgcyadv)" rx="110.434" ry="24.4868" style="stroke:#A80036;stroke-width:1.5;"/><text fill="#000000" font-family="sans-serif" font-size="14" lengthAdjust="spacing" textLength="184" x="809.934" y="462.8559">Get back a list of new unit ids</text><ellipse cx="859.0104" cy="339.5427" fill="#FEFECE" filter="url(#f1vcp43rgcyadv)" rx="160.0104" ry="34.4021" style="stroke:#A80036;stroke-width:1.5;"/><text fill="#000000" font-family="sans-serif" font-size="14" lengthAdjust="spacing" textLength="208" x="755.0104" y="334.4665">Print unit ids as codebars to stick</text><text fill="#000000" font-family="sans-serif" font-size="14" lengthAdjust="spacing" textLength="248" x="735.0104" y="352.0759">on unit boxes for later unit manipulation</text><ellipse cx="166.8903" cy="459.2187" fill="#FEFECE" filter="url(#f1vcp43rgcyadv)" rx="110.8903" ry="24.5781" style="stroke:#A80036;stroke-width:1.5;"/><text fill="#000000" font-family="sans-serif" font-size="14" lengthAdjust="spacing" textLength="185" x="74.3903" y="462.9472">Get unit type name from User</text><ellipse cx="1179.8478" cy="225.5102" fill="#FEFECE" filter="url(#f1vcp43rgcyadv)" rx="84.8478" ry="19.3696" style="stroke:#A80036;stroke-width:1.5;"/><text fill="#000000" font-family="sans-serif" font-size="14" lengthAdjust="spacing" textLength="126" x="1116.8478" y="229.2387">Register a new user</text><ellipse cx="1375.0193" cy="225.6704" fill="#FEFECE" filter="url(#f1vcp43rgcyadv)" rx="53.5193" ry="15.5298" style="stroke:#A80036;stroke-width:1.5;"/><text fill="#000000" font-family="sans-serif" font-size="14" lengthAdjust="spacing" textLength="59" x="1342.5193" y="230.187">Look at ..</text><ellipse cx="1187.1681" cy="339.8743" fill="#FEFECE" filter="url(#f1vcp43rgcyadv)" rx="99.1681" ry="22.2336" style="stroke:#A80036;stroke-width:1.5;"/><text fill="#000000" font-family="sans-serif" font-size="14" lengthAdjust="spacing" textLength="159" x="1107.6681" y="343.6028">Get user name from User</text><ellipse cx="1659.758" cy="339.677" fill="#FEFECE" filter="url(#f1vcp43rgcyadv)" rx="54.258" ry="15.5364" style="stroke:#A80036;stroke-width:1.5;"/><text fill="#000000" font-family="sans-serif" font-size="14" lengthAdjust="spacing" textLength="60" x="1626.758" y="344.1936">multiple ..</text><ellipse cx="1660.234" cy="459.0923" fill="#FEFECE" filter="url(#f1vcp43rgcyadv)" rx="36.234" ry="15.4517" style="stroke:#A80036;stroke-width:1.5;"/><text fill="#000000" font-family="sans-serif" font-size="14" lengthAdjust="spacing" textLength="35" x="1642.734" y="462.8208">users</text><ellipse cx="1774.811" cy="459.0942" fill="#FEFECE" filter="url(#f1vcp43rgcyadv)" rx="43.311" ry="15.4535" style="stroke:#A80036;stroke-width:1.5;"/><text fill="#000000" font-family="sans-serif" font-size="14" lengthAdjust="spacing" textLength="45" x="1751.8228" y="462.9735">actions</text><ellipse cx="1908.9968" cy="459.1835" fill="#FEFECE" filter="url(#f1vcp43rgcyadv)" rx="54.9968" ry="15.5429" style="stroke:#A80036;stroke-width:1.5;"/><text fill="#000000" font-family="sans-serif" font-size="14" lengthAdjust="spacing" textLength="61" x="1875.4968" y="463.7001">unit types</text><ellipse cx="1556.1985" cy="459.0923" fill="#FEFECE" filter="url(#f1vcp43rgcyadv)" rx="32.6985" ry="15.4517" style="stroke:#A80036;stroke-width:1.5;"/><text fill="#000000" font-family="sans-serif" font-size="14" lengthAdjust="spacing" textLength="30" x="1541.1985" y="462.8208">units</text><ellipse cx="1853.7982" cy="567.9003" fill="#FEFECE" filter="url(#f1vcp43rgcyadv)" rx="106.7982" ry="23.7596" style="stroke:#A80036;stroke-width:1.5;"/><text fill="#000000" font-family="sans-serif" font-size="14" lengthAdjust="spacing" textLength="176" x="1765.7982" y="571.6288">Get page number from User</text><path d="M1554.5,555.1406 L1554.5,581.4922 A0,0 0 0 0 1554.5,581.4922 L1711.5,581.4922 A0,0 0 0 0 1711.5,581.4922 L1711.5,573.1406 L1746.89,568.1406 L1711.5,565.1406 L1711.5,565.1406 L1701.5,555.1406 L1554.5,555.1406 A0,0 0 0 0 1554.5,555.1406 " fill="#FBFB77" filter="url(#f1vcp43rgcyadv)" style="stroke:#A80036;stroke-width:1.0;"/><path d="M1701.5,555.1406 L1701.5,565.1406 L1711.5,565.1406 L1701.5,555.1406 " fill="#FBFB77" style="stroke:#A80036;stroke-width:1.0;"/><text fill="#000000" font-family="sans-serif" font-size="13" lengthAdjust="spacing" textLength="136" x="1560.5" y="573.6357">One page = 100 results</text><ellipse cx="1413.9905" cy="568.0387" fill="#FEFECE" filter="url(#f1vcp43rgcyadv)" rx="104.9905" ry="23.3981" style="stroke:#A80036;stroke-width:1.5;"/><text fill="#000000" font-family="sans-serif" font-size="14" lengthAdjust="spacing" textLength="172" x="1327.9905" y="571.7672">as an amount of a unit type</text><ellipse cx="1413.9382" cy="673.2283" fill="#FEFECE" filter="url(#f1vcp43rgcyadv)" rx="93.4382" ry="21.0876" style="stroke:#A80036;stroke-width:1.5;"/><text fill="#000000" font-family="sans-serif" font-size="14" lengthAdjust="spacing" textLength="146" x="1340.9382" y="676.9568">Get utype_id from User</text><ellipse cx="1375.0193" cy="339.6704" fill="#FEFECE" filter="url(#f1vcp43rgcyadv)" rx="53.5193" ry="15.5298" style="stroke:#A80036;stroke-width:1.5;"/><text fill="#000000" font-family="sans-serif" font-size="14" lengthAdjust="spacing" textLength="59" x="1342.5193" y="344.187">specific ..</text><ellipse cx="1344.7843" cy="459.0923" fill="#FEFECE" filter="url(#f1vcp43rgcyadv)" rx="31.2843" ry="15.4517" style="stroke:#A80036;stroke-width:1.5;"/><text fill="#000000" font-family="sans-serif" font-size="14" lengthAdjust="spacing" textLength="28" x="1330.7843" y="462.8208">user</text><ellipse cx="1449.8553" cy="459.0923" fill="#FEFECE" filter="url(#f1vcp43rgcyadv)" rx="38.3553" ry="15.4517" style="stroke:#A80036;stroke-width:1.5;"/><text fill="#000000" font-family="sans-serif" font-size="14" lengthAdjust="spacing" textLength="38" x="1430.8553" y="462.8208">action</text><ellipse cx="1137.8274" cy="459.1346" fill="#FEFECE" filter="url(#f1vcp43rgcyadv)" rx="49.8274" ry="15.494" style="stroke:#A80036;stroke-width:1.5;"/><text fill="#000000" font-family="sans-serif" font-size="14" lengthAdjust="spacing" textLength="54" x="1108.1067" y="463.589">unit type</text><ellipse cx="1251.2487" cy="459.0923" fill="#FEFECE" filter="url(#f1vcp43rgcyadv)" rx="27.7487" ry="15.4517" style="stroke:#A80036;stroke-width:1.5;"/><text fill="#000000" font-family="sans-serif" font-size="14" lengthAdjust="spacing" textLength="23" x="1239.7487" y="462.8208">unit</text><ellipse cx="1187.7698" cy="568.0946" fill="#FEFECE" filter="url(#f1vcp43rgcyadv)" rx="85.2698" ry="19.454" style="stroke:#A80036;stroke-width:1.5;"/><text fill="#000000" font-family="sans-serif" font-size="14" lengthAdjust="spacing" textLength="127" x="1124.2698" y="571.8231">Get {x}_id from User</text><ellipse cx="761.2412" cy="796.0889" fill="#FEFECE" filter="url(#f1vcp43rgcyadv)" rx="102.7412" ry="22.9482" style="stroke:#A80036;stroke-width:1.5;"/><text fill="#000000" font-family="sans-serif" font-size="14" lengthAdjust="spacing" textLength="167" x="677.7412" y="799.8174">Send unit creation request</text><ellipse cx="505.8554" cy="795.9117" fill="#FEFECE" filter="url(#f1vcp43rgcyadv)" rx="116.8554" ry="25.7711" style="stroke:#A80036;stroke-width:1.5;"/><text fill="#000000" font-family="sans-serif" font-size="14" lengthAdjust="spacing" textLength="198" x="406.8554" y="799.6402">Send unit type creation request</text><ellipse cx="1003.9905" cy="796.0387" fill="#FEFECE" filter="url(#f1vcp43rgcyadv)" rx="104.9905" ry="23.3981" style="stroke:#A80036;stroke-width:1.5;"/><text fill="#000000" font-family="sans-serif" font-size="14" lengthAdjust="spacing" textLength="172" x="917.9905" y="799.7672">Send user creation request</text><ellipse cx="1607.0785" cy="796.3563" fill="#FEFECE" filter="url(#f1vcp43rgcyadv)" rx="79.0785" ry="18.2157" style="stroke:#A80036;stroke-width:1.5;"/><text fill="#000000" font-family="sans-serif" font-size="14" lengthAdjust="spacing" textLength="112" x="1549.6751" y="800.4801">Send Get request</text><ellipse cx="1414.0785" cy="796.3563" fill="#FEFECE" filter="url(#f1vcp43rgcyadv)" rx="79.0785" ry="18.2157" style="stroke:#A80036;stroke-width:1.5;"/><text fill="#000000" font-family="sans-serif" font-size="14" lengthAdjust="spacing" textLength="112" x="1356.6751" y="800.4801">Send Get request</text><ellipse cx="1221.896" cy="796.1198" fill="#FEFECE" filter="url(#f1vcp43rgcyadv)" rx="77.896" ry="17.9792" style="stroke:#A80036;stroke-width:1.5;"/><text fill="#000000" font-family="sans-serif" font-size="14" lengthAdjust="spacing" textLength="109" x="1165.4355" y="800.3872">Send get request</text><!--MD5=[8fc3522a43f8c7199df5e09e5bb0188e]
entity user--><ellipse cx="674" cy="36.6406" fill="#FEFECE" filter="url(#f1vcp43rgcyadv)" rx="8" ry="8" style="stroke:#A80036;stroke-width:1.5;"/><path d="M674,44.6406 L674,71.6406 M661,52.6406 L687,52.6406 M674,71.6406 L661,86.6406 M674,71.6406 L687,86.6406 " fill="none" filter="url(#f1vcp43rgcyadv)" style="stroke:#A80036;stroke-width:1.5;"/><text fill="#000000" font-family="sans-serif" font-size="14" lengthAdjust="spacing" textLength="29" x="659.5" y="106.6738">User</text><!--MD5=[dd82451e1dd92fe3da01853750f49ff6]
entity server--><ellipse cx="1222" cy="891.6406" fill="#FEFECE" filter="url(#f1vcp43rgcyadv)" rx="8" ry="8" style="stroke:#A80036;stroke-width:1.5;"/><path d="M1222,899.6406 L1222,926.6406 M1209,907.6406 L1235,907.6406 M1222,926.6406 L1209,941.6406 M1222,926.6406 L1235,941.6406 " fill="none" filter="url(#f1vcp43rgcyadv)" style="stroke:#A80036;stroke-width:1.5;"/><text fill="#000000" font-family="sans-serif" font-size="14" lengthAdjust="spacing" textLength="42" x="1201" y="961.6738">Server</text><!--MD5=[8cc09a5c903621877d205179b7032ec7]
link user to boot--><path d="M661.18,110.2006 C642.92,168.0106 610.04,272.0406 595.84,316.9906 " fill="none" id="user-to-boot" style="stroke:#A80036;stroke-width:1.0;"/><polygon fill="#A80036" points="594.29,321.9106,600.805,314.5245,595.7895,317.1408,593.1732,312.1253,594.29,321.9106" style="stroke:#A80036;stroke-width:1.0;"/><!--MD5=[deae40a4342e9583998d66bb52d0f8f4]
link boot to enterUserId--><path d="M599.71,356.9806 C612.88,377.0806 635.34,411.3606 650.43,434.3706 " fill="none" id="boot-to-enterUserId" style="stroke:#A80036;stroke-width:1.0;"/><polygon fill="#A80036" points="653.34,438.8206,651.7528,429.1005,650.5995,434.6385,645.0615,433.4853,653.34,438.8206" style="stroke:#A80036;stroke-width:1.0;"/><!--MD5=[6abf39baba735a4d3f88787dfb0508c7]
link enterUserId to storeUserId--><path d="M698.32,478.5306 C733.89,498.7806 790.55,531.0306 824.81,550.5306 " fill="none" id="enterUserId-to-storeUserId" style="stroke:#A80036;stroke-width:1.0;"/><polygon fill="#A80036" points="829.29,553.0806,823.4463,545.1528,824.9444,550.6076,819.4895,552.1057,829.29,553.0806" style="stroke:#A80036;stroke-width:1.0;"/><!--MD5=[3f114da92edbfc23863372fb3fd0666c]
link user to addUnits--><path d="M659.42,79.9906 C646.21,89.5306 626.38,104.2606 610,118.1406 C531.03,185.0806 443.89,271.0706 402.09,313.1506 " fill="none" id="user-to-addUnits" style="stroke:#A80036;stroke-width:1.0;"/><polygon fill="#A80036" points="398.43,316.8306,407.6152,313.2765,401.9584,313.288,401.947,307.6311,398.43,316.8306" style="stroke:#A80036;stroke-width:1.0;"/><!--MD5=[54c1e060eef1751b3bfae9cd6917dbc5]
link addUnits to enterAmount--><path d="M386.4,362.7406 C394.42,381.5706 405.99,408.7706 414.73,429.3106 " fill="none" id="addUnits-to-enterAmount" style="stroke:#A80036;stroke-width:1.0;"/><polygon fill="#A80036" points="416.78,434.1206,416.9372,424.273,414.8225,429.5197,409.5758,427.4051,416.78,434.1206" style="stroke:#A80036;stroke-width:1.0;"/><!--MD5=[f6609d50a168ecf09e2a695b53e5e83c]
link enterAmount to enterUtypeId--><path d="M473.89,482.0506 C514.51,501.0306 572.8,528.2706 612.42,546.7806 " fill="none" id="enterAmount-to-enterUtypeId" style="stroke:#A80036;stroke-width:1.0;"/><polygon fill="#A80036" points="617.15,548.9906,610.7064,541.5421,612.6249,546.8637,607.3033,548.7822,617.15,548.9906" style="stroke:#A80036;stroke-width:1.0;"/><!--MD5=[2d48378ac7a14acb24a15cdc322cdc48]
link enterUtypeId to getUserId--><path d="M676.25,589.0006 C694.46,606.8706 721.13,633.0306 739.67,651.2106 " fill="none" id="enterUtypeId-to-getUserId" style="stroke:#A80036;stroke-width:1.0;"/><polygon fill="#A80036" points="743.26,654.7406,739.6318,645.5844,739.6889,651.241,734.0324,651.2981,743.26,654.7406" style="stroke:#A80036;stroke-width:1.0;"/><!--MD5=[5a039d0db25b8b7b440b0ae751dd7a7b]
link storeUserId to getUserId--><path d="M840.68,583.9006 C823.8,602.5906 794.76,634.7506 776.79,654.6506 " fill="none" id="storeUserId-getUserId" style="stroke:#A80036;stroke-width:1.0;stroke-dasharray:7.0,7.0;"/><!--MD5=[3f8f7f210f085ea81722055b9dd8d48a]
link getUserId to unitPost--><path d="M761,691.7306 C761,711.7206 761,744.5806 761,767.8906 " fill="none" id="getUserId-to-unitPost" style="stroke:#A80036;stroke-width:1.0;"/><polygon fill="#A80036" points="761,773.0006,765,764.0006,761,768.0006,757,764.0006,761,773.0006" style="stroke:#A80036;stroke-width:1.0;"/><!--MD5=[832266cf13822c33852da562588cf91f]
link unitPost to server--><path d="M789.21,818.5406 C812.76,835.2906 847.87,857.7606 882,870.1406 C994,910.7706 1137.9,919.9606 1195.98,922.0306 " fill="none" id="unitPost-to-server" style="stroke:#A80036;stroke-width:1.0;"/><polygon fill="#A80036" points="1201,922.2006,1192.1428,917.8937,1196.003,922.0288,1191.8679,925.889,1201,922.2006" style="stroke:#A80036;stroke-width:1.0;"/><!--MD5=[a0fb5fb56d337179db891689f88b787f]
link unitIds to unitPost--><path d="M822.62,476.2306 C720.12,497.3706 553.72,533.1306 545,544.1406 C484.06,621.0806 614.23,674.3706 662,718.1406 C684.15,738.4406 711.19,759.2306 731.41,774.0806 " fill="none" id="unitIds-unitPost" style="stroke:#A80036;stroke-width:1.0;stroke-dasharray:7.0,7.0;"/><!--MD5=[f99576938ce9606fe9e0a513dfd23295]
reverse link unitIds to server--><path d="M995.77,474.6506 C1020.51,478.1306 1047.23,481.5806 1072,484.1406 C1172.57,494.5506 1910.9,470.3306 1980,544.1406 C2032.85,600.6006 2019.44,651.6206 1980,718.1406 C1908.18,839.2706 1836.33,827.9006 1702,870.1406 C1531.26,923.8306 1311.46,924.4806 1243.18,923.2206 " fill="none" id="unitIds-backto-server" style="stroke:#A80036;stroke-width:1.0;"/><polygon fill="#A80036" points="990.52,473.9106,998.8575,479.1533,995.4689,474.6237,999.9985,471.2351,990.52,473.9106" style="stroke:#A80036;stroke-width:1.0;"/><!--MD5=[c1c7cb751bf0843864641d057bed59d3]
reverse link codebar to unitIds--><path d="M873.17,379.3706 C879.84,397.5906 887.58,418.7406 893.36,434.5306 " fill="none" id="codebar-backto-unitIds" style="stroke:#A80036;stroke-width:1.0;"/><polygon fill="#A80036" points="871.32,374.3106,870.6821,384.1388,873.0505,379.0016,878.1877,381.37,871.32,374.3106" style="stroke:#A80036;stroke-width:1.0;"/><!--MD5=[4ddcfbdcda4819c855817d71910c5f9e]
reverse link user to codebar--><path d="M691.45,95.0106 C725.02,143.8206 798.61,250.8206 836.08,305.3206 " fill="none" id="user-backto-codebar" style="stroke:#A80036;stroke-width:1.0;"/><polygon fill="#A80036" points="688.52,90.7506,690.3226,100.4331,691.3526,94.8708,696.9149,95.9009,688.52,90.7506" style="stroke:#A80036;stroke-width:1.0;"/><!--MD5=[40a2a1a8dff1dcc8791913e4ac89d24c]
link user to addUtype--><path d="M659.36,71.1906 C624.67,75.2606 535.23,88.0706 467,118.1406 C346.91,171.0606 224.76,271.2306 173.3,316.0106 " fill="none" id="user-to-addUtype" style="stroke:#A80036;stroke-width:1.0;"/><polygon fill="#A80036" points="169.43,319.4006,178.8435,316.5046,173.2,316.1162,173.5884,310.4727,169.43,319.4006" style="stroke:#A80036;stroke-width:1.0;"/><!--MD5=[5d9bb23ec990bc1442f221e96424e2a0]
link addUtype to enterUtypeName--><path d="M151.18,360.3106 C154.23,379.1806 158.87,407.8906 162.34,429.3406 " fill="none" id="addUtype-to-enterUtypeName" style="stroke:#A80036;stroke-width:1.0;"/><polygon fill="#A80036" points="163.15,434.3506,165.6563,424.826,162.3489,429.4152,157.7597,426.1078,163.15,434.3506" style="stroke:#A80036;stroke-width:1.0;"/><!--MD5=[a399fb533a56b4f722fed89697050f93]
link enterUtypeName to utypePost--><path d="M190.3,483.1706 C250.58,542.7406 411.54,701.7906 477.35,766.8306 " fill="none" id="enterUtypeName-to-utypePost" style="stroke:#A80036;stroke-width:1.0;"/><polygon fill="#A80036" points="481.17,770.6006,477.5788,761.4298,477.6131,767.0866,471.9564,767.1209,481.17,770.6006" style="stroke:#A80036;stroke-width:1.0;"/><!--MD5=[2424513be24f53a77aeb8c847e86d757]
link utypePost to server--><path d="M540.64,821.0006 C566.94,837.8006 604.65,859.1806 641,870.1406 C747.22,902.1706 1097.14,917.8306 1195.86,921.6806 " fill="none" id="utypePost-to-server" style="stroke:#A80036;stroke-width:1.0;"/><polygon fill="#A80036" points="1200.92,921.8706,1192.0871,917.5141,1195.924,921.6708,1191.7673,925.5077,1200.92,921.8706" style="stroke:#A80036;stroke-width:1.0;"/><!--MD5=[989a68a2793288835eda89e8b85f26c9]
link user to addUser--><path d="M688.66,74.0206 C716.97,82.4806 781.11,101.7106 835,118.1406 C938.35,149.6606 1058.92,187.0106 1126.68,208.0606 " fill="none" id="user-to-addUser" style="stroke:#A80036;stroke-width:1.0;"/><polygon fill="#A80036" points="1131.47,209.5406,1124.0661,203.0458,1126.6961,208.0541,1121.6877,210.6841,1131.47,209.5406" style="stroke:#A80036;stroke-width:1.0;"/><!--MD5=[713dec8c7b51c008c20e4f03d59d4387]
link addUser to enterUserName--><path d="M1181.17,245.3906 C1182.32,263.7606 1184.08,291.9206 1185.37,312.4906 " fill="none" id="addUser-to-enterUserName" style="stroke:#A80036;stroke-width:1.0;"/><polygon fill="#A80036" points="1185.68,317.5406,1189.1075,308.3074,1185.3663,312.5505,1181.1233,308.8093,1185.68,317.5406" style="stroke:#A80036;stroke-width:1.0;"/><!--MD5=[bfc07083fdac2a05465a93923de78acd]
link enterUserName to userPost--><path d="M1149.97,360.1606 C1123.35,376.2806 1089.1,401.7306 1071,434.1406 C1008.97,545.2306 1067.02,595.0006 1035,718.1406 C1030.57,735.1806 1023.31,753.5006 1016.92,767.9906 " fill="none" id="enterUserName-to-userPost" style="stroke:#A80036;stroke-width:1.0;"/><polygon fill="#A80036" points="1014.8,772.7506,1022.1315,766.1743,1016.8453,768.1881,1014.8315,762.9018,1014.8,772.7506" style="stroke:#A80036;stroke-width:1.0;"/><!--MD5=[97f58532619bfde1cece9df9d384a0a3]
link userPost to server--><path d="M1039.09,818.3506 C1063.6,833.0806 1097.16,853.0406 1127,870.1406 C1150.21,883.4406 1176.9,898.1306 1196.06,908.5906 " fill="none" id="userPost-to-server" style="stroke:#A80036;stroke-width:1.0;"/><polygon fill="#A80036" points="1200.77,911.1506,1194.7754,903.3362,1196.3778,908.7614,1190.9526,910.3637,1200.77,911.1506" style="stroke:#A80036;stroke-width:1.0;"/><!--MD5=[1ab5031aa0e6c10495c759f74f0f409e]
link user to lookAt--><path d="M688.73,70.1506 C776.47,73.2406 1228.36,90.4606 1283,118.1406 C1321.37,137.5806 1350.47,180.6406 1364.91,205.6506 " fill="none" id="user-to-lookAt" style="stroke:#A80036;stroke-width:1.0;"/><polygon fill="#A80036" points="1367.44,210.1006,1366.4895,200.2977,1364.9778,205.7489,1359.5267,204.2372,1367.44,210.1006" style="stroke:#A80036;stroke-width:1.0;"/><!--MD5=[74d0801d202cf6e402d39a189d9b0c9b]
link lookAt to multi--><path d="M1405.23,238.5206 C1458.35,259.4006 1568.16,302.5506 1624.68,324.7606 " fill="none" id="lookAt-to-multi" style="stroke:#A80036;stroke-width:1.0;"/><polygon fill="#A80036" points="1629.65,326.7106,1622.7419,319.6908,1624.9978,324.8784,1619.8103,327.1343,1629.65,326.7106" style="stroke:#A80036;stroke-width:1.0;"/><!--MD5=[42f526fa4256e6cd942e1a37735bfb2a]
link multi to multiAction--><path d="M1674.1,355.0506 C1695.28,376.6906 1735.24,417.5106 1758,440.7706 " fill="none" id="multi-to-multiAction" style="stroke:#A80036;stroke-width:1.0;"/><polygon fill="#A80036" points="1761.5,444.3406,1758.0575,435.113,1758.0004,440.7696,1752.3438,440.7124,1761.5,444.3406" style="stroke:#A80036;stroke-width:1.0;"/><!--MD5=[333531c033c88e1ec69c0c61cdd68b8f]
link multi to multiUnit--><path d="M1647.25,355.0506 C1628.07,376.7106 1591.87,417.6106 1571.3,440.8606 " fill="none" id="multi-to-multiUnit" style="stroke:#A80036;stroke-width:1.0;"/><polygon fill="#A80036" points="1567.89,444.7006,1576.8512,440.6144,1571.2047,440.9573,1570.8618,435.3108,1567.89,444.7006" style="stroke:#A80036;stroke-width:1.0;"/><!--MD5=[9a61df74f624784310a2a936625a118a]
link multi to multiUtype--><path d="M1686.65,353.2106 C1732.95,375.0706 1828.05,419.9406 1877.53,443.2906 " fill="none" id="multi-to-multiUtype" style="stroke:#A80036;stroke-width:1.0;"/><polygon fill="#A80036" points="1882.17,445.4806,1875.7264,438.0321,1877.6449,443.3537,1872.3233,445.2722,1882.17,445.4806" style="stroke:#A80036;stroke-width:1.0;"/><!--MD5=[dbbe245712392b1ed6650963d5748b21]
link multi to multiUser--><path d="M1660,355.5206 C1660,376.5306 1660,414.9406 1660,438.3406 " fill="none" id="multi-to-multiUser" style="stroke:#A80036;stroke-width:1.0;"/><polygon fill="#A80036" points="1660,443.3806,1664,434.3806,1660,438.3806,1656,434.3806,1660,443.3806" style="stroke:#A80036;stroke-width:1.0;"/><!--MD5=[838311f576e77406d382d3db167a8c71]
link multiAction to enterPage--><path d="M1785.65,474.5706 C1798.05,491.3606 1818.79,519.4506 1834.17,540.2906 " fill="none" id="multiAction-to-enterPage" style="stroke:#A80036;stroke-width:1.0;"/><polygon fill="#A80036" points="1837.18,544.3506,1835.0405,534.737,1834.2052,540.3318,1828.6104,539.4966,1837.18,544.3506" style="stroke:#A80036;stroke-width:1.0;"/><!--MD5=[0b90f0aa44d6210a551d386c27da751c]
link multiUnit to enterPage--><path d="M1577.59,470.9806 C1586.58,475.3106 1597.19,480.2006 1607,484.1406 C1667.08,508.2806 1737.19,531.3706 1787.34,547.0406 " fill="none" id="multiUnit-to-enterPage" style="stroke:#A80036;stroke-width:1.0;"/><polygon fill="#A80036" points="1792.13,548.5306,1784.7261,542.0358,1787.3561,547.0441,1782.3477,549.6741,1792.13,548.5306" style="stroke:#A80036;stroke-width:1.0;"/><!--MD5=[1419582a62d74e5e064ee800bfa28c01]
link multiUtype to enterPage--><path d="M1901.58,474.5706 C1893.08,491.1206 1878.94,518.6306 1868.28,539.3706 " fill="none" id="multiUtype-to-enterPage" style="stroke:#A80036;stroke-width:1.0;"/><polygon fill="#A80036" points="1865.92,543.9506,1873.5942,537.7775,1868.2074,539.5045,1866.4804,534.1177,1865.92,543.9506" style="stroke:#A80036;stroke-width:1.0;"/><!--MD5=[9e5c5efd1180fde9fc4bb721aae8bf85]
link multiUser to enterPage--><path d="M1681.13,471.7906 C1711.99,488.8106 1770.08,520.8606 1810.36,543.0706 " fill="none" id="multiUser-to-enterPage" style="stroke:#A80036;stroke-width:1.0;"/><polygon fill="#A80036" points="1815.18,545.7306,1809.2247,537.8863,1810.7998,543.3194,1805.3667,544.8945,1815.18,545.7306" style="stroke:#A80036;stroke-width:1.0;"/><!--MD5=[d5865ee0c28487a2f43944f27d5f67a5]
link enterPage to multiGet--><path d="M1829.41,591.6406 C1781.23,635.7306 1675.06,732.8606 1629.02,774.9906 " fill="none" id="enterPage-to-multiGet" style="stroke:#A80036;stroke-width:1.0;"/><polygon fill="#A80036" points="1625.28,778.4106,1634.6206,775.2876,1628.9693,775.0359,1629.221,769.3846,1625.28,778.4106" style="stroke:#A80036;stroke-width:1.0;"/><!--MD5=[b5798db4dfc0dd409172cbc32555fdc9]
link multiGet to server--><path d="M1590.23,813.9106 C1572.24,830.8706 1542.04,856.4706 1511,870.1406 C1420.31,910.0906 1300.78,919.6406 1248.45,921.9206 " fill="none" id="multiGet-to-server" style="stroke:#A80036;stroke-width:1.0;"/><polygon fill="#A80036" points="1243.3,922.1306,1252.463,925.7416,1248.2954,921.9165,1252.1205,917.7489,1243.3,922.1306" style="stroke:#A80036;stroke-width:1.0;"/><!--MD5=[75468504b499ea5a73c46018d3dbcc03]
link multiUnit to unitAmount--><path d="M1539.43,472.6206 C1516.84,489.6506 1475.87,520.5206 1446.91,542.3406 " fill="none" id="multiUnit-to-unitAmount" style="stroke:#A80036;stroke-width:1.0;"/><polygon fill="#A80036" points="1442.73,545.4906,1452.3262,543.2741,1446.7248,542.4838,1447.5152,536.8824,1442.73,545.4906" style="stroke:#A80036;stroke-width:1.0;"/><!--MD5=[8878f3b9a2254250ea13c55b0d2eda80]
link unitAmount to enterUtypeIdAmount--><path d="M1414,591.7406 C1414,608.0606 1414,630.0906 1414,646.9706 " fill="none" id="unitAmount-to-enterUtypeIdAmount" style="stroke:#A80036;stroke-width:1.0;"/><polygon fill="#A80036" points="1414,652.0306,1418,643.0306,1414,647.0306,1410,643.0306,1414,652.0306" style="stroke:#A80036;stroke-width:1.0;"/><!--MD5=[e098bcc257e639da84e9130bbab871ae]
link enterUtypeIdAmount to amountGet--><path d="M1414,694.3906 C1414,716.0706 1414,750.3606 1414,772.8006 " fill="none" id="enterUtypeIdAmount-to-amountGet" style="stroke:#A80036;stroke-width:1.0;"/><polygon fill="#A80036" points="1414,777.9606,1418,768.9606,1414,772.9606,1410,768.9606,1414,777.9606" style="stroke:#A80036;stroke-width:1.0;"/><!--MD5=[b36b864b20414706fe7415ff47b3facc]
link amountGet to server--><path d="M1394.04,813.7206 C1375.06,829.1506 1345.41,852.3706 1318,870.1406 C1295.08,885.0006 1267.61,899.7406 1247.94,909.7906 " fill="none" id="amountGet-to-server" style="stroke:#A80036;stroke-width:1.0;"/><polygon fill="#A80036" points="1243.12,912.2506,1252.955,911.728,1247.5749,909.9804,1249.3226,904.6002,1243.12,912.2506" style="stroke:#A80036;stroke-width:1.0;"/><!--MD5=[4611dbe50e8bbf99b454346008cb8cfb]
link lookAt to spec--><path d="M1375,241.2806 C1375,261.1506 1375,296.7206 1375,318.9306 " fill="none" id="lookAt-to-spec" style="stroke:#A80036;stroke-width:1.0;"/><polygon fill="#A80036" points="1375,323.9906,1379,314.9906,1375,318.9906,1371,314.9906,1375,323.9906" style="stroke:#A80036;stroke-width:1.0;"/><!--MD5=[a4f96f8e9ce523d2b0342eb9feff2722]
link spec to specAction--><path d="M1384.2,355.0506 C1397.76,376.3006 1423.15,416.0806 1438.12,439.5206 " fill="none" id="spec-to-specAction" style="stroke:#A80036;stroke-width:1.0;"/><polygon fill="#A80036" points="1440.96,443.9806,1439.4964,434.2411,1438.2728,439.7641,1432.7499,438.5406,1440.96,443.9806" style="stroke:#A80036;stroke-width:1.0;"/><!--MD5=[1808c0577b10a124ccfdf41d324a39d9]
link spec to specUnit--><path d="M1360.29,354.5806 C1337.27,376.3906 1292.84,418.4906 1268.32,441.7306 " fill="none" id="spec-to-specUnit" style="stroke:#A80036;stroke-width:1.0;"/><polygon fill="#A80036" points="1264.56,445.2906,1273.8485,442.0159,1268.1939,441.8563,1268.3535,436.2016,1264.56,445.2906" style="stroke:#A80036;stroke-width:1.0;"/><!--MD5=[c1055af29e7b7bd6074b4ad1a610c315]
link spec to specUtype--><path d="M1349.19,353.4406 C1304.88,375.4006 1214.61,420.1606 1167.74,443.4006 " fill="none" id="spec-to-specUtype" style="stroke:#A80036;stroke-width:1.0;"/><polygon fill="#A80036" points="1163.07,445.7106,1172.9109,445.3137,1167.5535,443.4974,1169.3697,438.1401,1163.07,445.7106" style="stroke:#A80036;stroke-width:1.0;"/><!--MD5=[65c247ea8da767a51e9206b4f39eee88]
link spec to specUser--><path d="M1371.2,355.5206 C1365.84,376.5306 1356.03,414.9406 1350.05,438.3406 " fill="none" id="spec-to-specUser" style="stroke:#A80036;stroke-width:1.0;"/><polygon fill="#A80036" points="1348.77,443.3806,1354.8817,435.6575,1350.0129,438.5376,1347.1328,433.6688,1348.77,443.3806" style="stroke:#A80036;stroke-width:1.0;"/><!--MD5=[3a5413c1a7a347617e090825c682ef49]
link specAction to enterSpecId--><path d="M1424.96,471.0106 C1415.3,475.1606 1404.16,479.9206 1394,484.1406 C1339.15,506.9406 1275.71,532.3606 1233.88,548.9906 " fill="none" id="specAction-to-enterSpecId" style="stroke:#A80036;stroke-width:1.0;"/><polygon fill="#A80036" points="1229.15,550.8706,1238.9908,551.2681,1233.7973,549.026,1236.0394,543.8325,1229.15,550.8706" style="stroke:#A80036;stroke-width:1.0;"/><!--MD5=[98f3ddc45a38ff9ea0f65ed32444f336]
link specUnit to enterSpecId--><path d="M1242.76,474.1306 C1232.3,491.9006 1214.1,522.8106 1201.57,544.0906 " fill="none" id="specUnit-to-enterSpecId" style="stroke:#A80036;stroke-width:1.0;"/><polygon fill="#A80036" points="1198.99,548.4706,1207.0059,542.7483,1201.5288,544.1632,1200.1139,538.6861,1198.99,548.4706" style="stroke:#A80036;stroke-width:1.0;"/><!--MD5=[fa4db402e873bb2048f91da36171277e]
link specUtype to enterSpecId--><path d="M1144.74,474.5706 C1153.07,492.3906 1167.34,522.9206 1177.2,544.0206 " fill="none" id="specUtype-to-enterSpecId" style="stroke:#A80036;stroke-width:1.0;"/><polygon fill="#A80036" points="1179.35,548.6406,1179.1671,538.7935,1177.2348,544.1101,1171.9182,542.1778,1179.35,548.6406" style="stroke:#A80036;stroke-width:1.0;"/><!--MD5=[e4b340bff03e754b07aa31475393f824]
link specUser to enterSpecId--><path d="M1327.3,472.2106 C1300.82,490.2506 1250.56,524.5006 1218.21,546.5506 " fill="none" id="specUser-to-enterSpecId" style="stroke:#A80036;stroke-width:1.0;"/><polygon fill="#A80036" points="1213.96,549.4506,1223.6496,547.6865,1218.0914,546.6344,1219.1436,541.0762,1213.96,549.4506" style="stroke:#A80036;stroke-width:1.0;"/><!--MD5=[169855f477cba4e03c0d70e84ac14367]
link enterSpecId to specGet--><path d="M1190.78,587.6306 C1196.99,628.8606 1211.93,728.1806 1218.64,772.7906 " fill="none" id="enterSpecId-to-specGet" style="stroke:#A80036;stroke-width:1.0;"/><polygon fill="#A80036" points="1219.41,777.9506,1222.028,768.4561,1218.6669,773.0062,1214.1168,769.6451,1219.41,777.9506" style="stroke:#A80036;stroke-width:1.0;"/><!--MD5=[71ab8546d8c0e5958baa4cf9364df14d]
link specGet to server--><path d="M1222,814.3306 C1222,830.3606 1222,855.0106 1222,876.7406 " fill="none" id="specGet-to-server" style="stroke:#A80036;stroke-width:1.0;"/><polygon fill="#A80036" points="1222,881.9106,1226,872.9106,1222,876.9106,1218,872.9106,1222,881.9106" style="stroke:#A80036;stroke-width:1.0;"/><!--MD5=[641e2c92d005001ee3d11bdbf510da60]
@startuml
title 1.0.0 Listore usecase diagram
actor User as user

package Application {
    rectangle "Every day use" as everyday {
        usecase "Boot up the app" as boot
        usecase "Add new units to the stock" as addUnits
        usecase "Create a new unit type" as addUtype

        usecase "Get user_id from User" as enterUserId
        usecase "Store user_id" as storeUserId

        usecase "Get amount to store from User" as enterAmount
        usecase "Get utype_id from User" as enterUtypeId
        usecase "Get stored user_id" as getUserId
        usecase "Get back a list of new unit ids" as unitIds
        usecase "Print unit ids as codebars to stick\non unit boxes for later unit manipulation" as codebar

        usecase "Get unit type name from User" as enterUtypeName
    }


    rectangle "Administration use" as admin {
        usecase "Register a new user" as addUser
        usecase "Look at .." as lookAt

        usecase "Get user name from User" as enterUserName

        usecase "multiple .." as multi
        usecase "users" as multiUser
        usecase "actions" as multiAction
        usecase "unit types" as multiUtype
        usecase "units" as multiUnit
        usecase "Get page number from User" as enterPage
        note left of enterPage : One page = 100 results

        usecase "as an amount of a unit type" as unitAmount
        usecase "Get utype_id from User" as enterUtypeIdAmount

        usecase "specific .." as spec
        usecase "user" as specUser
        usecase "action" as specAction
        usecase "unit type" as specUtype
        usecase "unit" as specUnit
        usecase "Get {x}_id from User" as enterSpecId
    }

    rectangle Requests as requests {
        usecase "Send unit creation request" as unitPost
        usecase "Send unit type creation request" as utypePost
        usecase "Send user creation request" as userPost
        usecase "Send Get request" as multiGet
        usecase "Send Get request" as amountGet
        usecase "Send get request" as specGet
    }
}

actor Server as server

user - -> boot
boot - -> enterUserId
enterUserId - -> storeUserId


user - -> addUnits
addUnits - -> enterAmount
enterAmount - -> enterUtypeId
enterUtypeId - -> getUserId
storeUserId .. getUserId
getUserId - -> unitPost
unitPost -down-> server
unitPost .left. unitIds
server -up-> unitIds
unitIds -up-> codebar
codebar -up-> user


user - -> addUtype
addUtype - -> enterUtypeName
enterUtypeName - -> utypePost
utypePost - -> server


user - -> addUser
addUser - -> enterUserName
enterUserName - -> userPost
userPost - -> server


user - -> lookAt

lookAt - -> multi
multi - -> multiAction
multi - -> multiUnit
multi - -> multiUtype
multi - -> multiUser
multiAction - -> enterPage
multiUnit - -> enterPage
multiUtype - -> enterPage
multiUser - -> enterPage
enterPage - -> multiGet
multiGet - -> server

multiUnit - -> unitAmount
unitAmount - -> enterUtypeIdAmount
enterUtypeIdAmount - -> amountGet
amountGet - -> server

lookAt - -> spec
spec - -> specAction
spec - -> specUnit
spec - -> specUtype
spec - -> specUser
specAction - -> enterSpecId
specUnit - -> enterSpecId
specUtype - -> enterSpecId
specUser - -> enterSpecId
enterSpecId - -> specGet
specGet - -> server
@enduml

PlantUML version 1.2021.7(Sun May 23 14:40:07 CEST 2021)
(GPL source distribution)
Java Runtime: OpenJDK Runtime Environment
JVM: OpenJDK 64-Bit Server VM
Default Encoding: Cp1252
Language: en
Country: US
--></g></svg>